<svg width="271" height="374" viewBox="0 0 271 374" fill="none" xmlns="http://www.w3.org/2000/svg">
<path d="M63.278 486.075C64.3739 468.083 65.5481 450.091 66.644 432.099C67.505 418.951 70.7928 406.11 73.1411 393.193C77.6812 367.896 82.5344 342.753 87.3094 317.533C87.6225 316.457 86.5266 315.611 86.7615 314.611C87.3877 310.229 88.4835 305.923 89.2663 301.54C89.5012 300.541 89.736 299.541 89.8142 298.465C92.3191 283.394 95.4503 268.401 98.1118 253.33C98.5815 250.639 99.2859 248.025 102.182 246.795C103.67 246.256 105.235 246.256 106.801 246.333C119.325 247.025 131.928 247.563 144.453 247.948C145.235 247.948 146.018 248.179 146.723 248.486C148.915 250.255 148.21 252.715 148.21 254.868C148.288 265.094 150.01 267.324 159.952 270.323C166.684 272.322 173.65 272.937 180.695 273.245C182.731 273.322 184.844 272.937 186.801 273.937C187.897 274.936 187.427 276.09 186.801 277.089C182.261 284.855 182.339 293.082 184.374 301.463C185.079 304.077 182.965 306.846 185.001 309.306C184.844 314.765 184.766 320.301 185.001 325.76C185.157 330.297 186.958 332.834 190.559 333.911C191.733 334.295 192.281 335.602 193.533 335.91C195.725 336.679 197.995 336.909 200.265 336.986C201.283 337.448 202.222 337.909 203.396 337.755C211.928 337.371 216.625 333.757 218.739 325.684C221.478 315.38 222.966 304.846 225.158 294.466C225.549 292.698 225.001 290.16 227.819 289.622C229.619 292.39 229.15 295.696 229.932 298.772C230.167 299.618 230.245 300.464 230.324 301.309C230.872 305.385 231.42 309.537 231.889 313.689C231.889 314.688 232.124 315.765 231.576 316.687C231.968 326.068 233.925 335.295 235.099 344.598C236.195 353.518 237.447 362.437 238.7 371.356C239.874 379.66 241.048 387.887 242.144 396.191C243.631 406.879 244.962 417.567 246.528 428.178C247.545 435.328 248.719 442.402 249.737 449.553C249.972 449.86 250.207 450.245 250.363 450.629C250.676 451.86 250.989 453.09 251.302 454.243C255.138 481.462 258.895 508.604 262.496 535.823C263.044 539.745 263.592 543.666 263.983 547.587C264.453 552.124 264.531 556.66 265.236 561.197C266.41 575.575 269.072 589.723 270.715 604.024C271.342 609.407 271.263 609.407 265.784 609.637C264.923 609.945 264.062 610.406 263.123 610.406C260.539 610.56 257.956 610.483 255.373 610.483C239.561 610.714 223.67 610.56 207.858 610.56C203.866 610.56 199.795 610.56 195.803 610.791C190.324 610.406 184.844 610.637 179.443 610.56C174.433 610.483 173.885 609.945 173.181 605.255C171.85 595.566 172.711 585.878 172.555 576.113C172.711 574.422 172.633 572.807 172.006 571.192C171.772 570.347 171.693 569.424 171.693 568.501C172.085 554.43 171.145 540.437 170.676 526.366C170.206 513.756 170.832 501.069 169.502 488.459C169.502 487.767 169.502 486.998 169.423 486.306C169.815 470.928 168.719 455.627 168.406 440.249C168.014 420.719 167.388 401.112 166.84 381.582C166.371 363.59 165.509 345.521 165.431 327.529C165.431 325.76 165.275 323.992 165.04 322.147C164.727 319.455 163.866 317.687 160.5 317.687C157.212 317.687 155.96 319.071 155.333 322.07C149.619 349.904 143.67 377.738 138.034 405.572C137.251 409.493 136.625 413.415 135.451 417.182C132.006 428.408 134.276 439.557 135.294 450.706C136.312 462.393 137.955 474.081 138.738 485.845C138.66 487.229 138.817 488.536 139.208 489.843C142.417 515.601 145.314 541.436 148.914 567.194C149.071 568.578 149.384 569.962 149.541 571.346C149.619 572.038 149.619 572.73 149.697 573.422C151.263 583.649 152.515 593.875 154.081 604.101C154.864 609.176 153.846 610.406 148.68 610.483C143.2 610.56 137.799 610.56 132.319 610.483C129.814 610.406 128.014 611.175 127.231 613.559C126.918 614.02 126.527 614.097 125.979 613.943C124.492 610.944 121.987 610.483 118.856 610.483C101.556 610.56 84.1783 610.637 66.8788 610.483C66.4092 610.483 65.9394 610.483 65.3914 610.483C63.591 610.637 61.7906 610.56 59.912 610.56C55.2153 610.406 53.8846 609.407 54.3543 604.87C55.3719 594.49 55.2153 584.033 56.6243 573.653C56.6243 572.961 56.6243 572.192 56.6243 571.5C56.9374 561.12 57.7985 550.817 58.4247 540.513C59.051 530.056 59.7555 519.599 60.3817 509.142C60.6948 503.376 61.321 497.686 61.5559 491.919C62.4952 489.997 62.1821 487.844 63.278 486.075Z" fill="#8F3600"/>
<path d="M232.345 166.908C235.241 177.134 237.668 187.591 241.191 197.663C245.026 208.505 243.93 218.962 241.425 229.65C241.034 231.341 240.643 233.11 240.016 234.724C239.625 235.647 239.39 237.108 237.668 236.493C235.711 237.108 233.832 236.877 231.875 236.416C223.891 234.724 215.75 233.494 207.766 231.879C205.965 231.495 204.165 231.264 202.364 231.572C195.554 228.727 188.352 229.111 181.229 228.727C171.601 228.189 162.051 227.65 152.423 227.112C149.448 226.958 148.587 225.113 148.039 222.653C144.83 208.428 141.464 194.203 138.176 179.979C131.757 152.298 125.26 124.618 118.998 96.9379C118.606 95.2463 117.667 93.4779 119.233 91.8632C124.008 90.4023 128.939 91.3249 133.871 91.1712C142.246 91.0174 150.544 91.0174 158.92 91.1712C169.487 91.3249 180.055 91.1712 190.623 91.2481C202.912 91.3249 213.636 98.6295 217.002 110.394C221.464 125.925 226.239 141.303 230.31 156.912C231.327 160.218 232.11 163.524 232.345 166.908Z" fill="#202B6D"/>
<path d="M20.5388 43.1234C26.4096 42.8928 30.6368 45.507 33.6114 50.428C37.5253 56.9636 41.0477 63.8068 43.944 70.8806C44.492 76.4936 48.0144 80.7225 50.2844 85.5666C49.9713 82.8754 48.5625 80.6456 47.7014 78.1851C47.3883 77.3394 46.2923 76.5705 47.3882 75.5709C48.2492 72.8029 47.7797 69.9579 47.8579 67.1899C48.0145 64.1912 48.9538 61.6539 51.6935 60.1161C55.2943 60.7312 57.2512 62.8841 57.9557 66.2672C60.1475 70.65 58.7385 75.4171 59.1299 79.9536C58.9733 81.0301 59.3647 82.1065 59.2864 83.2599C60.0692 91.6408 59.6778 100.099 59.9127 108.557C59.991 110.402 60.6954 112.017 61.2434 113.785C66.2532 128.779 71.4978 143.618 76.899 158.458C77.1338 159.534 76.9773 160.688 77.5252 161.687C78.2297 163.763 79.0125 165.763 80.0301 167.685C80.8129 169.838 81.5957 172.067 82.2219 174.22C82.8481 176.45 82.0654 177.604 79.7171 178.065C77.7601 178.372 75.8815 178.757 73.9246 178.834C64.6878 179.141 55.4508 178.296 46.214 179.449C45.0399 179.603 43.8658 179.372 42.7699 178.911C41.7523 178.372 41.1259 177.604 41.1259 176.45C41.1259 174.912 40.4997 173.605 39.7169 172.375C34.1592 157.074 28.5231 141.85 22.8871 126.549C22.4957 124.934 22.4958 123.319 21.9478 121.705C16.2335 105.942 10.5193 90.2568 4.80501 74.4944C3.94396 72.1877 3.23949 69.8811 2.30015 67.6513C-0.987523 59.5009 0.969428 52.6578 7.77962 47.1217C9.73657 47.1986 9.73657 48.9671 10.128 50.1204C12.1632 55.7334 14.1984 61.4232 16.3902 67.0361C17.4078 69.7273 18.3471 72.2646 14.3549 73.8793C20.9303 71.8033 26.9576 69.4966 32.9068 66.4979C28.5232 67.8819 27.2708 65.3446 26.0966 62.1152C24.2962 57.0405 22.1827 52.1195 20.4606 46.9679C20.3823 45.7377 19.3646 44.5075 20.5388 43.1234Z" fill="#FD9993"/>
<path d="M202.927 231.272C203.631 229.888 204.806 230.349 205.902 230.503C216.548 232.502 227.116 234.501 237.762 236.5C235.022 245.42 233.613 254.569 232.282 263.796C231.891 267.102 231.734 270.486 231.108 273.792C230.951 275.022 230.403 276.175 230.403 277.406C229.307 281.481 229.934 286.017 227.664 289.862C225.315 296.936 224.767 304.317 223.123 311.468C221.949 316.543 221.088 321.771 219.757 326.769C217.565 334.996 211.46 339.225 202.77 338.917C201.674 337.303 202.614 335.688 202.927 334.15C204.493 327.461 206.45 320.848 207.389 314.005C205.51 320.31 203.945 326.692 202.222 333.074C201.831 334.612 201.831 336.457 200.265 337.533C197.682 338.917 195.49 337.456 193.142 336.611C192.281 334.227 193.377 332.074 193.847 329.921C195.256 323.847 196.978 317.85 197.995 311.698C196.117 317.004 194.786 322.463 193.455 327.922C192.907 330.229 192.985 332.843 190.872 334.535C190.246 335.611 189.541 335.842 188.523 334.996C186.253 333.151 184.375 330.844 184.218 327.999C183.905 321.848 183.67 315.62 184.844 309.469C185.471 303.625 187.662 298.089 188.836 292.322C189.384 289.785 190.167 287.248 190.167 284.556C188.523 288.939 187.584 293.552 186.332 298.089C185.94 299.627 185.94 301.472 184.061 302.318C180.461 292.63 181.87 283.48 187.271 274.791C188.21 270.639 191.185 267.641 193.377 264.181C195.49 260.874 197.056 257.491 197.682 253.647C198.778 247.572 200.109 241.575 201.361 235.578C201.518 233.963 201.44 232.271 202.927 231.272Z" fill="#FD9993"/>
<path d="M159.559 92.2595C150.949 92.2595 142.417 92.2595 133.806 92.2595C131.928 89.5683 132.945 86.4927 132.789 83.5709C132.789 82.7251 132.71 81.8793 132.789 81.0336C133.18 77.958 131.928 76.3433 128.64 76.2664C127.153 76.1895 125.587 75.8819 124.491 74.6517C116.663 72.4219 109.305 69.577 104.922 62.0418C103.435 59.4275 102.652 56.7364 102.495 53.8915C102.026 49.5856 102.104 45.2798 102.495 40.8971C102.965 39.3593 102.182 37.5908 103.435 36.2068C105.861 34.9766 106.722 33.5157 104.139 31.5934C103.513 30.7476 103.435 29.7481 103.513 28.6716C103.435 19.1373 105.078 10.295 114.08 4.60513C117.055 2.68289 119.951 2.45222 123.317 3.68245C132.71 7.14249 139.286 12.8323 139.99 23.2893C140.695 33.0543 147.426 36.053 155.646 36.053C161.751 36.053 167.622 36.7451 172.162 41.3584C176.859 46.2025 176.702 51.5848 171.771 56.1213C169.814 57.8897 167.544 59.12 165.039 59.9658C162.456 60.8116 161.36 62.5031 161.047 64.9636C160.733 67.1934 160.812 69.577 159.559 71.653C159.559 74.7286 159.638 77.8811 159.638 80.9567C160.342 81.9562 160.499 83.1865 160.655 84.3398C160.577 87.031 161.673 89.8759 159.559 92.2595Z" fill="#FD9993"/>
<path d="M159.646 71.6417C159.411 68.1047 160.272 64.6447 160.977 61.2616C161.29 59.8006 162.777 59.7238 164.03 59.4162C167.396 58.4935 170.214 56.6482 172.64 54.1877C175.458 51.2659 175.771 46.7294 173.188 43.5769C169.431 38.9635 164.421 37.0413 158.55 36.9644C153.697 36.9644 149.079 36.8106 144.695 34.1194C141.408 32.1203 140.155 29.3523 139.764 26.1229C138.981 19.5104 137.729 13.1285 131.701 8.97648C127.631 6.20845 123.247 2.74841 118.238 3.82487C112.523 5.0551 108.531 9.36093 106.574 15.0508C105.244 18.8953 104.774 22.8935 104.304 26.9687C104.226 27.5838 104.304 28.2758 103.678 28.6603C98.8249 27.6607 96.9462 24.4313 97.1027 20.3562C97.4158 7.59247 106.966 4.74754 116.672 1.90262C118.472 1.36439 120.429 1.13372 122.386 0.749274C129.901 0.364825 137.494 0.364825 145.008 0.749274C151.818 1.90262 158.629 2.8253 165.126 5.43955C169.274 7.13113 172.562 9.74538 174.441 13.513C179.215 23.278 184.069 24.5851 195.654 20.6637C197.298 20.1255 198.863 19.2797 200.429 18.5877C202.777 17.5112 204.656 16.973 204.577 20.6637C204.577 21.7402 205.125 22.8166 205.438 23.97C205.83 28.0452 205.83 32.1203 205.438 36.2724C203.873 43.8076 201.368 50.9583 196.28 57.1095C188.53 66.4901 178.354 70.7959 166.378 71.6417C164.03 71.7186 161.838 71.6417 159.646 71.6417Z" fill="black"/>
<path d="M62.8203 15.7502C66.4211 10.9061 69.9436 6.13897 74.4054 2.21761C75.0316 1.67939 75.5795 1.91006 76.1275 2.3714C76.6754 2.83273 76.4407 3.21718 76.0493 3.60162C71.744 7.67677 68.2997 12.7515 62.8203 15.7502Z" fill="#688EB6"/>
<path d="M104.14 31.5781C106.019 31.5781 107.585 31.9626 107.272 34.2692C106.959 36.6528 105.08 36.2684 103.436 36.1915C102.575 34.4999 102.027 32.8852 104.14 31.5781Z" fill="#0E0B0B"/>
<path d="M205.281 36.2711C205.281 32.196 205.281 28.1208 205.281 23.9688C206.297 28.0439 206.219 32.1191 205.281 36.2711Z" fill="#FCFCFC"/>
<path d="M20.5328 43.1167C23.1161 50.1905 25.8559 57.2644 28.2044 64.4151C29.1438 67.26 30.5529 65.876 32.0403 65.4147C33.2145 65.0302 34.6235 63.8769 35.328 65.6454C36.0326 67.3369 34.232 67.6445 33.0578 68.1058C27.265 70.4894 21.5506 72.7961 15.7578 75.1028C14.7401 75.4872 13.3309 76.2561 12.7047 74.7952C12.0784 73.3343 13.4093 72.7192 14.5835 72.4116C16.5406 71.8734 17.2451 71.0276 16.384 68.9516C13.4876 61.724 10.7477 54.4195 8.00781 47.115C8.32094 45.4234 9.41703 45.1158 10.9044 45.7309C12.3917 46.423 12.7048 47.807 13.2528 49.1141C15.2881 54.3426 17.1667 59.7249 19.2021 64.9534C19.75 66.4911 19.7501 68.9516 22.5682 67.952C25.1515 67.0294 24.2903 65.2609 23.664 63.4924C21.9419 58.4946 19.9849 53.6506 18.1062 48.7296C17.4799 46.9612 16.2274 45.2696 17.245 43.2705C18.2627 41.5789 19.3586 41.9633 20.5328 43.1167Z" fill="#030202"/>
<path d="M17.247 43.2734C19.9086 50.578 22.4138 57.8825 25.3885 65.0332C26.8759 68.647 23.8228 68.2626 22.3354 69.1852C20.1435 70.5692 19.5955 69.1852 18.9692 67.4168C16.3076 60.1123 13.6461 52.8846 10.9062 45.5801C13.0199 44.8881 15.1334 44.1192 17.247 43.2734Z" fill="#FC9993"/>
<path d="M47.3933 75.495C48.8023 78.4937 50.2897 81.4155 51.6205 84.4142C52.0901 85.4906 52.638 86.7209 51.1507 87.336C49.82 87.9511 49.3503 86.7209 48.9589 85.7982C47.0019 81.7999 45.1234 77.8017 43.1664 73.8034C42.6185 72.5732 42.7749 71.5736 43.8708 70.8047C46.3757 71.4967 46.2974 73.8803 47.3933 75.495Z" fill="#0C0808"/>
<path d="M45.0471 381.502C44.186 381.194 44.0295 380.656 44.5775 380.041C48.4136 376.043 52.2496 372.121 56.0856 368.2C56.477 367.816 56.9467 367.585 57.4164 367.893C58.0427 368.277 57.8861 368.815 57.573 369.2C53.6586 373.198 49.6661 377.196 45.6735 381.194C45.5952 381.425 45.282 381.425 45.0471 381.502Z" fill="#688EB6"/>
<path d="M42.2179 177.66C43.079 177.814 43.9399 178.199 44.801 178.199C56.1515 177.891 67.5803 177.43 78.9307 177.199C81.9836 177.122 81.9836 176.046 81.0442 173.739C80.1832 171.509 79.6352 169.126 78.9307 166.819C78.0697 164.435 78.7742 162.052 79.0091 159.668C79.4005 158.284 79.009 156.9 79.1656 155.516C80.5746 145.136 80.4963 134.602 81.9054 124.222C84.0972 107.921 97.0915 94.7732 113.608 91.9283C114.783 91.6976 115.957 91.39 116.974 92.3127C119.792 102.539 121.906 112.919 124.333 123.299C132.082 156.669 139.91 190.04 147.503 223.487C149.304 231.329 148.208 239.249 148.129 247.169C148.129 247.938 147.816 248.63 147.112 249.168C132.082 248.553 117.053 248.015 102.023 247.399C100.144 247.246 97.9082 215.029 96.7341 213.875C81.5479 197.959 78.461 210.108 84.1754 189.271C87.9328 175.507 98.1092 160.898 107.972 150.595C107.346 152.133 108.755 149.749 107.972 150.595C101.319 156.054 112.811 170.279 108.662 177.199C101.304 189.425 102.649 195.73 103.275 210.185C103.588 217.874 103.757 226.024 107.123 232.867C109.472 237.558 88.4025 236.097 83.0012 236.174C68.2065 236.404 55.447 227.716 50.9068 213.875C47.3842 203.034 44.7228 191.962 41.9831 180.89C41.7482 179.813 41.3569 178.737 42.2179 177.66Z" fill="#202B6D"/>
<path d="M147.13 249.253C149.087 230.723 144.077 213.115 139.928 195.354C132.178 162.368 124.586 129.305 116.993 96.3196C116.68 95.0894 116.836 93.7822 116.758 92.4751C117.541 91.7062 118.323 91.7062 119.028 92.4751C123.411 111.236 127.873 129.92 132.257 148.682C137.423 170.749 142.433 192.893 147.521 215.037C148.147 217.882 149.008 220.727 149.478 223.572C149.791 225.264 150.339 225.956 152.139 226.033C162.159 226.494 172.1 226.955 182.12 227.57C187.834 227.955 193.549 227.955 199.185 229.108C200.594 229.416 202.472 229.185 202.942 231.184C201.22 240.027 199.967 249.023 197.619 257.711C195.897 264.093 190.965 269.091 187.208 274.55C178.754 274.243 170.3 274.319 162.081 272.09C159.498 271.398 156.836 270.475 154.409 269.398C149.4 267.246 146.503 263.862 147.208 258.019C147.521 255.174 147.208 252.175 147.13 249.253Z" fill="black"/>
<path d="M200.195 337.533C202.074 329.537 204.031 321.463 205.91 313.467C206.145 312.39 206.536 310.929 208.102 311.544C209.589 312.083 209.041 313.467 208.728 314.543C206.693 322.694 204.657 330.844 202.622 338.917C201.526 339.071 200.508 338.917 200.195 337.533Z" fill="#080504"/>
<path d="M190.789 334.453C192.668 326.764 194.547 319.152 196.348 311.463C196.583 310.309 196.818 308.848 198.305 309.079C200.262 309.387 199.558 311.001 199.245 312.155C197.209 320.305 195.095 328.378 192.981 336.529C191.259 336.99 190.867 335.837 190.789 334.453Z" fill="#060404"/>
<path d="M183.979 302.072C185.545 295.997 187.111 290 188.676 283.926C188.989 282.772 189.303 281.465 190.79 281.85C192.199 282.157 191.886 283.464 191.651 284.387C189.694 292.153 187.737 299.996 185.78 307.762C185.623 308.3 185.075 308.761 184.762 309.299C183.118 308.992 182.648 308.146 183.118 306.608C183.509 305.07 183.666 303.61 183.979 302.072Z" fill="#070404"/>
<path d="M198.703 203.2C198.859 204.199 198.468 204.968 197.45 205.199C196.354 205.43 195.963 204.891 195.65 203.815C192.049 188.821 188.448 173.828 184.847 158.834C184.612 157.758 184.534 156.605 185.865 156.297C187.117 156.066 187.587 157.143 187.822 158.219C191.423 173.059 195.023 187.976 198.624 202.815C198.624 202.892 198.703 203.046 198.703 203.2Z" fill="#FAFBFC"/>
<path d="M80.0231 159.219C79.7099 161.756 79.3185 164.294 79.0052 166.908C77.7522 165.37 77.3605 163.448 76.8906 161.526C77.2039 160.295 77.8305 159.142 78.9268 158.527C79.6317 158.142 80.1798 158.219 80.0231 159.219Z" fill="#EFEAEE"/>
<path d="M80.0349 159.207C78.2336 158.976 78.2336 161.053 76.9023 161.514C76.5107 160.822 76.1974 160.13 76.5107 159.361C77.6071 158.208 78.312 156.747 79.8783 156.055C79.8783 157.131 80.9747 158.131 80.0349 159.207Z" fill="#7191B6"/>
<path d="M42.2053 176.132C40.5624 175.287 40.7971 173.672 40.6406 172.211C41.8924 173.21 42.0488 174.671 42.2053 176.132Z" fill="#AA8FA5"/>
<path d="M133.805 34.4268C133.335 35.8108 132.631 36.9641 130.908 37.041C129.421 37.1179 128.403 36.5797 128.325 34.965C128.247 33.1965 129.108 32.4277 130.908 32.4277C132.474 32.3508 133.335 33.0428 133.805 34.4268Z" fill="#0E0908"/>
</svg>
