<svg width="343" height="407" viewBox="0 0 343 407" fill="none" xmlns="http://www.w3.org/2000/svg">
<path d="M73.9243 518.222C63.6833 518.003 53.4424 518.222 43.2014 518.222C41.643 519.463 13.9626 517.93 12.0331 518.076H4.61208C-0.508423 518.076 -0.35997 518.149 0.382133 513.261C2.3853 500.57 4.24008 487.879 6.09486 475.187L6.09628 475.177C8.91627 455.917 11.8847 436.656 14.6305 417.322C15.8178 408.859 28.3594 333.056 28.4336 324.447C29.4726 316.933 30.6599 309.345 31.7731 301.831C33.851 287.969 35.9288 274.034 38.0067 260.172C38.3035 258.056 37.784 257.108 35.335 257.108C31.8471 257.108 28.5819 256.013 25.5393 254.189C18.5636 250.031 16.6341 243.756 16.263 236.023C15.1499 212.166 13.5173 188.382 12.0331 164.525C11.3652 154.092 10.6231 143.732 10.0295 133.299C9.88103 130.162 9.50995 127.025 10.1778 123.887C12.9978 110.244 27.0978 99.0089 42.3109 98.2064C42.9788 97.7686 43.5724 97.112 44.4629 97.0391C44.9082 97.0391 45.2792 97.112 45.7245 97.185C51.6613 97.4039 57.5981 97.2579 63.5349 97.2579C66.3549 97.2579 67.5423 98.2064 67.4681 101.125C67.2454 115.06 67.3198 129.067 67.394 143.002C67.394 146.504 66.4291 148.912 62.7928 149.86C55.2976 151.83 55.6688 165.108 60.344 168.391C61.5314 169.267 62.8671 169.996 64.3513 170.069C74.8149 170.58 79.2675 170.142 78.4512 157.156C78.1544 153.581 76.5217 150.882 73.1822 150.006C68.7296 148.839 67.9133 146.066 67.9875 142.127C68.1359 129.505 68.0618 116.883 68.0618 104.262V104.261C68.0618 103.021 68.0618 101.854 68.2102 100.614C68.4328 98.6441 69.4717 97.4768 71.5496 97.4038C73.4049 97.3309 75.2601 96.9661 76.8927 98.2793C78.3743 99.9544 78.451 102.066 78.5251 104.105L78.5255 104.116C78.7481 108.639 79.1934 113.09 79.6386 117.54L79.6387 117.54C81.1229 133.299 82.3844 148.985 83.7202 164.671C84.9076 178.168 86.0948 191.738 87.1338 205.235C87.4306 209.612 88.8407 214.063 87.4307 218.513C83.5718 220.41 79.2676 220.118 75.186 220.264C68.3587 220.483 61.6056 220.264 54.7782 220.337C51.3646 220.41 50.9934 220.921 52.0323 223.912C55.0007 232.156 57.8208 240.473 60.4924 248.79C61.5313 252.147 63.4608 253.168 66.9486 253.241C73.2565 253.314 79.4901 252.584 85.798 252.511C87.3564 252.511 89.3601 252.001 90.1765 254.189C90.2507 255.721 90.4733 257.327 90.3991 258.859C89.8054 271.48 89.1376 284.029 88.5439 296.651C87.5049 318.976 86.466 341.228 85.3528 363.553C83.646 397.697 82.0133 431.914 80.3065 466.058L80.3052 466.083C79.4893 482.198 78.6734 498.313 78.0059 514.428C77.8575 517.347 76.9669 518.295 73.9243 518.222Z" fill="#6DB5DE"/>
<path d="M174.557 253.6C174.78 253.819 175.002 254.111 175.225 254.33C175.67 254.622 176.116 254.841 176.635 254.987C177.6 255.132 178.639 255.132 179.529 255.424C179.974 255.57 180.42 255.643 180.939 255.716C181.533 255.862 182.201 255.716 182.795 255.862C185.54 255.424 188.138 256.519 190.735 257.029C197.414 258.27 200.753 256.154 202.089 249.588C203.796 241.416 205.577 233.318 207.284 225.147C208.62 223.761 208.842 221.937 209.213 220.113C213.295 199.977 217.45 179.767 221.309 159.558C221.755 157.443 222.348 155.327 222.645 153.138C223.536 147.958 221.161 144.091 215.818 142.705C208.1 140.662 200.16 139.422 192.293 138.036C191.106 138.036 190.067 137.598 188.954 137.379C187.47 137.087 186.06 136.65 184.575 136.504C183.685 136.285 182.794 135.993 181.83 135.847C178.565 135.263 175.373 134.534 172.108 133.731C165.281 132.71 158.602 131.105 151.849 129.865C143.983 128.405 140.272 130.813 138.64 138.547C137.155 145.55 135.745 152.554 134.335 159.558C134.039 161.017 133.667 162.404 133.148 163.717C130.699 179.257 126.989 194.505 124.094 209.972C123.723 211.796 122.833 213.693 123.946 215.59C125.504 216.611 127.063 215.954 128.547 215.444C131.144 214.641 133.593 213.474 136.191 212.744C142.276 210.92 148.287 210.92 154.298 213.182C156.079 213.839 157.86 214.714 159.196 214.787C160.309 215.152 159.641 215.808 159.864 215.371C159.938 215.298 159.864 215.225 159.715 215.152C154.298 213.693 148.806 214.349 143.315 214.714C142.573 214.787 141.534 215.152 142.127 216.392C143.537 217.413 145.17 217.195 146.803 217.195C152.443 217.122 158.157 217.559 163.797 216.83C164.984 216.684 166.246 216.684 167.285 217.632C170.921 219.456 175.002 219.821 178.935 220.478C184.204 221.353 188.36 223.542 190.809 228.43C192.219 229.67 191.477 231.057 190.958 232.443C190.587 234.267 190.735 236.164 190.958 237.987C190.661 240.03 189.028 239.155 188.063 239.155C182.498 239.228 177.006 239.155 171.44 239.228C169.882 239.228 168.249 239.082 166.765 239.884C166.468 242.511 168.62 241.854 169.808 241.927C175.225 242.146 180.642 242 186.06 242C187.173 242 188.805 241.489 189.325 242.876C189.844 244.116 188.805 245.137 188.063 246.086C185.763 249.077 182.869 251.193 179.084 251.922C177.451 252.36 175.745 252.141 174.557 253.6Z" fill="#202B6D"/>
<path d="M336.109 94.117C335.589 93.7522 335.07 93.3874 334.55 93.0956C334.179 92.366 333.882 91.6365 333.289 91.0528C332.027 89.9584 331.137 88.4263 329.207 88.3534C323.345 90.688 318.447 94.7007 312.881 97.619C311.174 98.4945 309.616 99.6618 307.018 100.756C308.725 98.5674 310.432 97.8378 311.916 96.9623C316.369 94.3359 320.821 91.7824 325.2 89.01C326.239 88.3534 327.946 87.9886 327.129 86.0917C322.083 82.152 316.517 82.152 310.655 83.757C309.616 84.1948 308.725 84.8514 307.686 85.3621C300.042 90.1043 292.399 94.8466 284.236 99.6618C284.829 94.5547 288.911 89.8855 284.384 85.2892C282.009 83.4652 279.56 82.8816 276.815 84.4137C276.369 84.7055 275.924 85.0703 275.553 85.508C271.842 89.6666 270.507 94.9925 268.948 100.027C265.906 109.511 260.414 117.39 254.032 124.905C250.989 128.553 248.021 132.274 245.201 136.14C244.755 136.87 244.236 137.527 243.568 138.11C240.08 142.488 236.667 146.938 233.179 151.316C232.288 152.41 231.249 153.577 231.249 155.109C231.769 156.496 232.956 157.517 234.069 158.392C241.564 164.667 248.911 171.014 256.332 177.288C257.223 178.091 258.262 178.821 259.598 178.529C269.839 166.199 280.08 153.869 290.395 141.612C291.731 140.007 293.66 139.132 295.516 138.183C296.48 137.6 297.742 137.673 298.707 137.089C310.284 129.647 321.341 121.476 333.066 114.253C333.66 113.815 334.031 113.232 334.402 112.721C335.218 112.137 335.96 111.481 336.777 111.043C343.827 107.322 344.198 101.34 337.519 96.6705C335.589 96.1598 334.254 97.473 332.844 98.3485C327.352 101.486 322.009 104.915 315.775 108.344C316.517 106.593 317.556 106.228 318.373 105.717C323.27 102.872 327.946 99.8077 332.844 96.9623C334.254 96.2328 335.886 95.795 336.109 94.117Z" fill="#FD9993"/>
<path d="M259.745 178.537C250.023 171.023 240.895 162.851 231.545 154.899C228.948 150.886 227.983 150.813 224.792 154.242C223.233 155.92 221.749 157.671 220.413 159.495C217.742 172.701 214.996 185.979 212.324 199.184C210.618 207.793 208.911 216.475 207.204 225.084C215.441 226.397 221.823 223.187 227.166 217.351C237.778 205.75 248.316 194.077 258.928 182.477C260.042 181.31 261.452 180.215 259.745 178.537Z" fill="#6DB5DE"/>
<path d="M336.11 94.1203C329.431 98.1329 322.678 102.146 315.999 106.158C315.109 106.669 313.624 107.253 314.292 108.493C315.109 110.025 316.37 109.15 317.409 108.493C324.162 104.553 330.915 100.541 337.668 96.6008C338.039 95.2876 338.114 94.0473 336.11 94.1203Z" fill="#060403"/>
<path d="M131.805 501.076C140.191 479.627 148.576 458.104 157.036 436.728C157.779 434.831 156.962 433.372 156.517 431.839C146.721 398.717 136.777 365.594 126.907 332.471C125.497 327.802 124.013 323.206 122.751 318.537C122.232 316.64 121.415 315.983 119.412 316.129C114.959 316.421 110.507 316.713 106.128 316.713C103.679 316.713 103.382 317.734 103.382 319.777C103.679 337.724 103.902 355.672 104.199 373.619C104.718 412.725 105.237 451.757 105.831 490.862C105.905 494.145 106.128 497.355 106.351 500.638C106.87 501.003 107.39 501.441 107.983 501.441C115.85 501.733 123.864 502.243 131.805 501.076Z" fill="#6DB5DE"/>
<path d="M141.975 215.962C148.357 215.086 154.739 216.035 161.714 215.451C153.403 210.855 145.314 208.885 136.409 211.73C132.327 213.044 128.246 214.357 124.164 215.67C121.419 215.086 118.895 216.4 116.224 216.691C108.283 217.64 100.343 217.202 92.3283 217.348C90.5472 217.421 88.6179 217.056 87.0595 218.442C75.7796 219.245 64.4254 219.172 53.0713 219.245C50.1029 219.245 49.1382 219.756 50.2513 222.893C53.4423 231.648 56.6333 240.403 59.3049 249.376C60.4922 253.462 62.4216 254.629 66.5032 254.264C73.1079 253.754 79.7868 253.827 86.3915 253.681C87.5788 253.681 88.8404 253.389 89.9536 254.119C91.512 253.973 93.1445 253.681 94.7029 253.608C120.751 253.535 146.798 253.462 172.92 253.389C173.44 253.389 173.885 253.462 174.404 253.535C181.232 253.243 186.872 251.054 190.063 244.634C191.769 241.205 191.473 240.913 187.688 240.767C180.564 240.548 173.514 241.278 166.39 240.403C167.058 238.652 168.542 239.162 169.803 239.162C175.518 239.089 181.232 239.162 187.02 239.089C188.579 239.089 190.285 239.381 191.324 237.776C191.324 235.733 191.398 233.618 191.398 231.575C190.063 230.116 188.207 230.407 186.575 230.407C180.638 230.334 174.775 230.407 168.839 230.043C174.479 229.678 180.044 229.751 185.684 229.678C187.614 229.678 189.692 230.116 191.25 228.438C189.766 223.768 186.501 220.996 181.603 220.12C177.076 219.318 172.475 218.442 167.948 217.567C160.453 216.837 152.958 217.494 145.463 217.202C144.275 217.275 142.42 218.224 141.975 215.962Z" fill="#FD9993"/>
<path d="M43.0544 577.823C43.2029 583.222 43.2771 588.621 43.4255 594.02C44.6871 595.041 46.1712 594.968 47.6555 594.968C61.5329 595.041 75.4104 594.968 89.2878 594.968C90.5494 594.968 91.7366 594.968 92.8498 594.311C96.9314 584.973 100.939 575.634 105.02 566.369C105.391 565.566 105.621 499.839 106.808 500.496C148.308 477.996 132.308 500.496 107.321 567.901C103.981 575.342 100.716 582.711 97.451 590.153C96.9315 591.393 96.4861 592.633 96.0409 593.874C97.4509 595.114 99.232 594.968 100.939 594.968C121.347 594.968 141.829 594.968 162.237 594.968C163.573 594.968 164.983 595.114 166.17 594.311C168.025 588.767 169.881 583.149 171.662 577.604C172.404 576.947 172.997 576.218 173.294 575.27C186.949 535.216 200.159 494.943 213.739 454.89C216.559 446.646 218.266 438.255 217.895 429.501C217.672 425.196 217.004 421.037 216.04 416.879C214.11 409.072 212.255 401.266 210.325 393.46C210.177 392.657 209.806 392 209.732 391.198C204.908 371.791 200.307 352.312 195.409 332.978C194.89 331.738 194.89 330.278 194.519 328.965C188.804 306.275 183.535 283.513 177.747 260.896C177.376 259.583 177.079 258.269 176.856 256.956C176.485 255.789 176.263 254.549 175.446 253.527C175.001 253.016 174.333 252.725 173.665 252.506C172.107 252.141 170.474 252.141 168.842 252.141C145.168 252.141 121.421 252.141 97.7477 252.141C95.0762 252.141 92.2561 251.922 89.9556 253.746C88.8425 255.278 89.2134 257.029 89.1392 258.707C88.9908 266.805 88.4713 274.977 88.0261 283.075C87.3582 295.77 86.9871 308.537 86.0224 321.232C85.5771 326.704 85.4288 332.175 85.2062 337.574C84.6125 355.522 83.4993 373.469 82.7572 391.344C81.8667 411.48 80.8276 431.543 79.8629 451.68C78.8239 471.816 77.785 491.879 76.9687 512.015C76.8203 516.101 76.1524 516.685 71.774 516.758C63.9818 516.831 56.1897 516.758 48.3976 516.758C46.5423 516.758 44.6871 516.539 43.0544 517.779C42.3123 518.8 42.164 520.041 42.164 521.208C42.164 539.083 41.9412 557.03 42.2381 574.905C42.2381 576.072 42.4608 577.02 43.0544 577.823Z" fill="#8F3600"/>
<path d="M175.964 256.749C177.226 256.165 176.707 255.071 176.707 254.195C176.187 254.268 175.668 254.268 175.148 254.341C175.445 255.144 175.742 255.946 175.964 256.749Z" fill="#E7EDF3"/>
<path d="M87.1298 218.442C97.2224 218.588 107.241 218.588 117.333 217.931C119.782 217.785 122.083 216.837 124.235 215.67C127.352 200.276 130.394 184.955 133.511 169.561C133.882 167.664 134.402 165.767 133.882 163.87C134.624 162.411 133.882 161.025 133.363 159.711C125.942 140.086 118.446 120.533 111.619 100.762C111.174 99.5214 110.729 98.2082 109.319 97.6245C99.2261 96.822 89.1336 97.1138 79.041 97.2597C78.4473 97.2597 77.8536 97.5516 77.3342 97.8434C77.1857 97.9893 76.9632 98.1352 76.8147 98.2811C77.7795 109.006 78.8184 119.731 79.7831 130.455C81.9352 155.334 84.0872 180.212 86.1651 205.018C86.4619 209.468 86.7588 213.919 87.1298 218.442Z" fill="black"/>
<path d="M49.0436 96.765C45.6906 96.765 44.888 96.765 44.7612 97.4826C44.888 97.9523 55.7443 97.8474 61.2358 98.0662C66.3563 98.2122 66.3563 98.0662 66.3563 103.173C66.3563 117.035 66.2821 130.897 66.4306 144.686C66.4306 146.802 65.911 147.823 63.6105 148.407C57.3027 149.939 54.9279 154.754 56.1152 162.853C56.8573 167.887 60.3454 171.826 66.6532 171.243C68.5085 171.097 70.3637 171.316 72.219 171.097C73.2579 171.024 74.4453 170.659 75.3358 170.148C81.421 166.573 79.7884 160.664 79.5657 155.338C79.3431 151.398 76.449 148.845 72.59 148.334C69.399 147.896 69.1763 146.291 69.1763 143.738C69.3247 130.168 69.1764 116.525 69.2506 102.954C69.2506 97.6285 68.2858 98.1392 74.0742 98.0662C74.9648 98.0662 75.7811 98.1392 76.6716 98.2122L76.9452 97.3606C77.0704 96.2144 49.3404 96.765 49.0436 96.765Z" fill="#FDFDFE"/>
<path d="M133.811 163.796C125.5 141.981 117.262 120.167 109.544 98.1341C109.841 97.8422 125.796 97.3315 126.242 97.1856C132.624 96.8938 138.338 98.7907 143.607 102.22C145.314 102.657 145.685 104.7 147.243 105.43C148.356 106.816 149.395 108.275 150.583 109.661C157.855 118.051 186.024 130.599 193.297 138.917C192.11 140.104 157.93 131.986 150.657 130.746C144.498 129.725 141.084 131.84 139.822 137.969C138.932 142.054 138.412 146.286 137.299 150.372C136.112 154.822 136.483 159.71 133.811 163.796Z" fill="#6DB5DE"/>
<path d="M220.491 159.49C222.866 159.198 223.682 157.009 224.647 155.55C226.947 152.121 228.951 152.048 231.548 154.893C235.778 149.422 239.934 143.95 244.164 138.478C243.125 137.238 241.641 137.602 240.379 137.602C225.389 137.602 210.324 137.53 195.334 137.602C194.072 137.602 192.217 136.8 191.697 138.916C199.638 140.448 207.578 141.907 215.519 143.512C220.194 144.46 222.569 148.327 221.604 153.069C221.233 155.185 220.862 157.301 220.491 159.49Z" fill="#ECF6FF"/>
<path d="M191.4 228.508C184.128 228.581 176.929 228.581 169.657 228.727C168.247 228.727 165.798 227.778 165.724 230.04C165.65 232.447 168.099 231.499 169.509 231.499C176.855 231.645 184.276 231.572 191.623 231.572C193.552 230.478 193.255 229.456 191.4 228.508Z" fill="#050303"/>
<path d="M141.972 215.962C140.117 216.983 140.339 218.443 142.195 218.443C150.654 218.588 159.189 218.953 167.648 218.224C167.797 218.224 167.945 217.859 168.094 217.64C167.574 214.941 165.496 215.378 163.715 215.597C156.443 216.619 149.245 216.181 141.972 215.962Z" fill="#0B0707"/>
<path d="M191.472 237.852C183.68 237.852 175.962 237.852 168.17 237.925C166.611 237.925 163.94 237.706 166.537 240.478C174.552 240.478 182.492 240.405 190.507 240.332C191.398 240.332 192.659 240.624 192.882 239.238C193.03 238.362 192.14 238.143 191.472 237.852Z" fill="#120B0B"/>
<path d="M179.82 254.703C179.004 255.068 178.707 256.162 179.227 256.381C180.34 256.892 180.711 255.725 181.156 254.922C180.637 254.922 180.266 254.849 179.82 254.703Z" fill="#F2F4F8"/>
<path d="M298.406 136.583C309.092 136.656 319.779 136.656 330.465 136.729C332.692 136.729 333.137 135.708 333.063 133.884C332.989 127.099 332.988 120.387 332.914 113.602C321.04 120.605 309.834 128.777 298.406 136.583Z" fill="#ECF6FF"/>
<path d="M308.133 85.8047C300.192 85.8047 292.252 85.8047 284.311 85.8047C286.166 88.2852 286.092 90.8388 285.053 93.6841C284.163 96.0187 282.975 98.2804 282.975 101.709C291.732 96.1647 299.895 90.9847 308.133 85.8047Z" fill="#ECF6FF"/>
<path d="M329.505 88.5754C329.728 86.8244 328.837 86.2408 327.205 86.5326C321.49 90.0345 315.702 93.5365 309.987 97.0384C309.023 97.6221 308.132 98.2057 307.167 98.7894C306.277 99.3001 305.312 99.8838 305.98 101.051C306.796 102.51 307.835 101.635 308.8 101.051C315.627 96.8925 322.604 92.734 329.505 88.5754Z" fill="#060404"/>
<path d="M291.215 127.319C291.808 127.319 292.253 127.173 292.402 126.662C292.625 126.078 292.55 125.422 292.105 124.984C288.32 121.701 284.536 118.491 280.677 115.281C280.083 114.77 279.341 114.77 278.673 115.354C278.154 115.864 278.154 116.594 278.599 116.959C282.532 120.388 286.539 123.744 290.547 127.173C290.769 127.319 291.066 127.319 291.215 127.319Z" fill="#080505"/>
<path d="M131.29 51.6604C135.891 50.2012 138.118 46.3345 140.641 42.6866C142.125 40.5708 143.609 38.528 145.019 36.4123C146.429 34.3695 145.687 33.494 143.387 33.5669C140.715 33.6399 137.969 33.9317 135.223 34.0776C137.227 25.1039 134.481 19.0484 126.244 14.8899C128.541 3.7546 117.597 -0.772109 112.49 0.106515C106.553 1.12792 86.9125 12.0445 80.9014 12.7741C68.3599 14.2332 61.6067 20.3616 58.7867 32.6914C56.8572 41.0086 58.7867 43.1528 58.7867 46.8007C58.7867 50.4486 56.3131 54.4612 55.5835 57.7443C54.8539 61.0274 57.8956 63.9457 59.2314 66.1344C60.493 68.2502 63.9155 72.3483 66.8919 76.3485C70.7071 81.4758 68.4341 89.7442 76.5972 89.5253C78.7493 90.1819 79.0462 88.4309 78.8978 87.2636C77.8588 78.4358 81.1983 70.3375 83.1277 62.0203C84.3893 56.6945 85.1313 51.2956 85.0571 45.3131C86.3187 46.8452 87.2092 48.0855 88.2482 49.2528C94.4076 56.1837 105.02 55.5271 110.14 47.8666C112.96 43.708 112.96 43.708 116.077 47.5018C118.6 50.566 121.569 52.6818 125.65 53.1195C127.802 53.3384 129.732 53.1925 131.29 51.6604Z" fill="black"/>
<path d="M131.289 51.6597C121.864 54.1403 117.189 48.3766 113.182 40.7891C109.917 46.5527 107.394 52.4622 99.8985 53.0459C92.5518 53.6296 88.9157 48.6685 84.8341 43.1237C84.0921 49.1792 83.4241 54.3591 82.682 59.6121C82.0141 64.2084 80.7526 68.5129 78.8974 72.8174C77.1164 76.9759 78.6005 81.6452 78.2294 86.0956C78.1552 87.3359 79.0458 89.1598 76.6711 89.4516C76.5969 92.0781 76.5227 94.7046 76.4485 97.404C76.5227 97.6229 76.5969 97.7688 76.8195 97.9147C87.7283 97.9877 98.6369 98.0606 109.546 98.1336C109.62 97.9877 109.694 97.8417 109.694 97.6958C108.655 95.9449 106.874 96.4556 105.39 96.4556C102.941 96.4556 102.051 95.3612 102.199 93.0995C102.199 92.5888 102.199 93.2454 102.199 92.7347C101.902 84.0528 98.3747 84.7824 106.76 82.3748C108.912 81.7911 110.593 82.2289 112.597 81.2804C113.487 80.9886 118.303 79.0187 119.119 78.581C121.568 77.1948 117.741 79.4565 119.893 77.6326C120.412 77.0489 126.391 72.3067 126.465 71.5771C129.953 66.7619 131.141 61.363 130.918 55.5265C130.844 54.2862 131.141 52.9729 131.289 51.6597Z" fill="#FD9993"/>
<path d="M58.9358 159.78C58.9358 166.638 61.0136 168.754 67.8409 168.754C75.1876 168.754 76.8203 167.076 76.8203 159.343C76.8203 152.485 75.1135 150.807 68.1378 150.807C60.9395 150.734 58.9358 152.704 58.9358 159.78Z" fill="#6DB6DE"/>
<path d="M101.608 35.6777C109.771 35.8966 117.86 34.8022 126.024 34.6563C127.953 34.5833 128.843 34.2186 128.695 31.9569C127.73 18.022 129.976 17.5841 116.247 21.4508C107.045 24.0044 83.9453 25.1718 85.2069 34.2915C85.4295 36.1155 86.691 35.6048 87.6557 35.6048C92.2569 35.7507 96.9323 35.6777 101.608 35.6777Z" fill="#FD9993"/>
<path d="M74.0726 55.525C74.0726 52.5338 73.9984 49.4696 74.0726 46.4783C74.1468 44.3626 73.4789 43.9248 71.4753 44.7273C70.2879 45.238 68.8036 45.384 67.6905 45.9676C63.9057 47.8645 60.8631 50.491 60.8631 55.0873C60.8631 59.7565 63.7574 62.6748 67.7647 64.4988C73.9984 67.4171 73.9983 67.3441 73.9983 60.632C74.0726 58.8811 74.0726 57.203 74.0726 55.525Z" fill="#FB9892"/>
<path d="M111.18 38.6016C102.275 38.6016 93.815 38.6016 84.91 38.6016C87.5815 42.2494 89.7336 45.6055 92.7761 48.159C96.8576 51.6609 103.165 50.9314 106.505 46.5539C108.286 44.2193 109.473 41.4469 111.18 38.6016Z" fill="#FB9893"/>
<path d="M130.55 37.1406C126.023 37.3595 121.496 37.5784 116.969 37.8702C116.227 37.9432 114.669 37.9432 115.411 39.1105C117.786 42.9772 119.344 47.6465 124.465 49.1056C126.543 49.6893 128.769 49.9811 130.847 48.7409C131.886 47.3547 131.07 46.0414 130.624 44.7282C130.402 44.4364 130.179 44.2175 129.808 44.0716C128.769 43.8527 127.359 44.1445 127.285 42.6854C127.211 41.2992 128.843 41.4451 129.585 40.7885C130.03 39.5482 130.995 38.5268 130.55 37.1406Z" fill="#FB9892"/>
<path d="M130.028 44.2229C130.325 45.6821 130.547 47.1412 130.844 48.6733C136.114 46.7764 137.524 41.5965 140.641 37.8027C140.195 35.541 138.563 36.9272 137.449 36.8542C135.149 36.9272 132.922 37.0731 130.622 37.146C129.212 37.8756 129.508 39.1889 129.508 40.4291C129.434 41.7424 129.434 42.9826 130.028 44.2229Z" fill="#FCFBFB"/>
<path d="M137.37 36.8535C138.334 37.4372 139.819 36.4887 140.561 37.802C141.6 36.9995 141.525 36.4158 140.19 36.4158C139.225 36.3428 138.334 36.7076 137.37 36.8535Z" fill="#AEAEAE"/>
<path d="M103.461 41.0078C102.051 41.1537 101.16 41.8833 101.235 43.3424C101.309 44.8016 102.348 45.5312 103.684 45.4582C104.797 45.3852 105.688 44.5827 105.688 43.3424C105.688 41.8833 104.871 41.1537 103.461 41.0078Z" fill="#0D0807"/>
<path d="M130.025 44.2189C130.618 42.8327 130.693 41.5194 129.431 40.4251C128.095 40.2062 126.759 39.9873 126.017 41.5924C125.646 42.4679 125.795 43.1975 126.388 43.927C127.502 45.1673 128.763 44.8755 130.025 44.2189Z" fill="#120C0B"/>
<path d="M131.805 501.076C140.191 479.627 148.576 458.104 157.036 436.728C157.779 434.831 156.962 433.372 156.517 431.839C146.721 398.717 136.777 365.594 126.907 332.471C125.497 327.802 124.013 323.206 122.751 318.537C122.232 316.64 121.415 315.983 119.412 316.129C114.959 316.421 110.507 316.713 106.128 316.713C103.679 316.713 103.382 317.734 103.382 319.777C103.679 337.724 103.902 355.672 104.199 373.619C104.718 412.725 105.237 451.757 105.831 490.862C105.905 494.145 106.128 497.355 106.351 500.638C106.87 501.003 107.39 501.441 107.983 501.441C115.85 501.733 123.864 502.243 131.805 501.076Z" fill="#6DB5DE"/>
</svg>
