<svg width="336" height="372" viewBox="0 0 336 372" fill="none" xmlns="http://www.w3.org/2000/svg">
<path opacity="0.4" d="M304.377 247.111H304.048V230.384H304.377V228.983H304.048V212.256H304.377V210.855H304.048V194.128H304.377V192.727H304.048V176H304.377V174.599H304.048V157.872H304.377V156.471H304.048V139.744H304.377V138.343H304.048V129.856H304.377V128.455H304.048V111.728H304.377V110.904H304.048V94.1769H304.377V92.7761H304.048V76.0489H304.377V74.6481H304.048V58.0858H304.377V56.6849H304.048V40.0401H304.377V38.6394H304.048V21.9945H304.377V20.5938H25.4531V138.755V256.917L25.7003 257.494H26.8539V248.43H45.3115V257.494H46.7123V248.43H65.1699V257.494H66.5707V248.43H85.0283V257.494H86.4291V248.43H104.887V257.494H106.288V248.43H124.745V257.494H126.146V248.43H144.604V257.494H146.004V248.43H164.462V257.494H165.863V248.43H184.32V257.494H185.721V248.43H204.179V257.494H205.58V248.43H224.037V257.494H225.438V248.43H243.896V257.494H245.296V248.43H263.754V257.494H265.155V248.43H283.612V257.494H285.013V248.43H303.471V257.494H304.872V248.43H305.201V247.111H304.377ZM45.3115 247.111H26.8539V230.384H45.3115V247.111ZM45.3115 229.066H26.8539V212.339H45.3115V229.066ZM45.3115 211.02H26.8539V194.293H45.3115V211.02ZM45.3115 192.975H26.8539V176.247H45.3115V192.975ZM45.3115 174.929H26.8539V158.202H45.3115V174.929ZM45.3115 156.883H26.8539V140.156H45.3115V156.883ZM45.3115 138.838H26.8539V130.351H45.3115V138.838ZM45.3115 128.95H26.8539V112.223H45.3115V128.95ZM45.3115 110.904H26.8539V94.1769H45.3115V110.904ZM45.3115 92.8586H26.8539V76.1314H45.3115V92.8586ZM45.3115 74.8129H26.8539V58.0858H45.3115V74.8129ZM45.3115 56.7674H26.8539V40.0401H45.3115V56.7674ZM45.3115 38.7218H26.8539V21.9945H45.3115V38.7218ZM65.0875 247.111H46.6299V230.384H65.0875V247.111ZM65.0875 229.066H46.6299V212.339H65.0875V229.066ZM65.0875 211.02H46.6299V194.293H65.0875V211.02ZM65.0875 192.975H46.6299V176.247H65.0875V192.975ZM65.0875 174.929H46.6299V158.202H65.0875V174.929ZM65.0875 156.883H46.6299V140.156H65.0875V156.883ZM65.0875 138.838H46.6299V130.351H65.0875V138.838ZM65.0875 128.95H46.6299V112.223H65.0875V128.95ZM65.0875 110.904H46.6299V94.1769H65.0875V110.904ZM65.0875 92.8586H46.6299V76.1314H65.0875V92.8586ZM65.0875 74.8129H46.6299V58.0858H65.0875V74.8129ZM65.0875 56.7674H46.6299V40.0401H65.0875V56.7674ZM65.0875 38.7218H46.6299V21.9945H65.0875V38.7218ZM84.8635 247.111H66.4059V230.384H84.8635V247.111ZM84.8635 229.066H66.4059V212.339H84.8635V229.066ZM84.8635 211.02H66.4059V194.293H84.8635V211.02ZM84.8635 192.975H66.4059V176.247H84.8635V192.975ZM84.8635 174.929H66.4059V158.202H84.8635V174.929ZM84.8635 156.883H66.4059V140.156H84.8635V156.883ZM84.8635 138.838H66.4059V130.351H84.8635V138.838ZM84.8635 128.95H66.4059V112.223H84.8635V128.95ZM84.8635 110.904H66.4059V94.1769H84.8635V110.904ZM84.8635 92.8586H66.4059V76.1314H84.8635V92.8586ZM84.8635 74.8129H66.4059V58.0858H84.8635V74.8129ZM84.8635 56.7674H66.4059V40.0401H84.8635V56.7674ZM84.8635 38.7218H66.4059V21.9945H84.8635V38.7218ZM104.64 247.111H86.1819V230.384H104.64V247.111ZM104.64 229.066H86.1819V212.339H104.64V229.066ZM104.64 211.02H86.1819V194.293H104.64V211.02ZM104.64 192.975H86.1819V176.247H104.64V192.975ZM104.64 174.929H86.1819V158.202H104.64V174.929ZM104.64 156.883H86.1819V140.156H104.64V156.883ZM104.64 138.838H86.1819V130.351H104.64V138.838ZM104.64 128.95H86.1819V112.223H104.64V128.95ZM104.64 110.904H86.1819V94.1769H104.64V110.904ZM104.64 92.8586H86.1819V76.1314H104.64V92.8586ZM104.64 74.8129H86.1819V58.0858H104.64V74.8129ZM104.64 56.7674H86.1819V40.0401H104.64V56.7674ZM104.64 38.7218H86.1819V21.9945H104.64V38.7218ZM124.498 247.111H106.04V230.384H124.498V247.111ZM124.498 229.066H106.04V212.339H124.498V229.066ZM124.498 211.02H106.04V194.293H124.498V211.02ZM124.498 192.975H106.04V176.247H124.498V192.975ZM124.498 174.929H106.04V158.202H124.498V174.929ZM124.498 156.883H106.04V140.156H124.498V156.883ZM124.498 138.838H106.04V130.351H124.498V138.838ZM124.498 128.95H106.04V112.223H124.498V128.95ZM124.498 110.904H106.04V94.1769H124.498V110.904ZM124.498 92.8586H106.04V76.1314H124.498V92.8586ZM124.498 74.8129H106.04V58.0858H124.498V74.8129ZM124.498 56.7674H106.04V40.0401H124.498V56.7674ZM124.498 38.7218H106.04V21.9945H124.498V38.7218ZM144.274 247.111H125.816V230.384H144.274V247.111ZM144.274 229.066H125.816V212.339H144.274V229.066ZM144.274 211.02H125.816V194.293H144.274V211.02ZM144.274 192.975H125.816V176.247H144.274V192.975ZM144.274 174.929H125.816V158.202H144.274V174.929ZM144.274 156.883H125.816V140.156H144.274V156.883ZM144.274 138.838H125.816V130.351H144.274V138.838ZM144.274 128.95H125.816V112.223H144.274V128.95ZM144.274 110.904H125.816V94.1769H144.274V110.904ZM144.274 92.8586H125.816V76.1314H144.274V92.8586ZM144.274 74.8129H125.816V58.0858H144.274V74.8129ZM144.274 56.7674H125.816V40.0401H144.274V56.7674ZM144.274 38.7218H125.816V21.9945H144.274V38.7218ZM164.05 247.111H145.592V230.384H164.05V247.111ZM164.05 229.066H145.592V212.339H164.05V229.066ZM164.05 211.02H145.592V194.293H164.05V211.02ZM164.05 192.975H145.592V176.247H164.05V192.975ZM164.05 174.929H145.592V158.202H164.05V174.929ZM164.05 156.883H145.592V140.156H164.05V156.883ZM164.05 138.838H145.592V130.351H164.05V138.838ZM164.05 128.95H145.592V112.223H164.05V128.95ZM164.05 110.904H145.592V94.1769H164.05V110.904ZM164.05 92.8586H145.592V76.1314H164.05V92.8586ZM164.05 74.8129H145.592V58.0858H164.05V74.8129ZM164.05 56.7674H145.592V40.0401H164.05V56.7674ZM164.05 38.7218H145.592V21.9945H164.05V38.7218ZM183.826 247.111H165.368V230.384H183.826V247.111ZM183.826 229.066H165.368V212.339H183.826V229.066ZM183.826 211.02H165.368V194.293H183.826V211.02ZM183.826 192.975H165.368V176.247H183.826V192.975ZM183.826 174.929H165.368V158.202H183.826V174.929ZM183.826 156.883H165.368V140.156H183.826V156.883ZM183.826 138.838H165.368V130.351H183.826V138.838ZM183.826 128.95H165.368V112.223H183.826V128.95ZM183.826 110.904H165.368V94.1769H183.826V110.904ZM183.826 92.8586H165.368V76.1314H183.826V92.8586ZM183.826 74.8129H165.368V58.0858H183.826V74.8129ZM183.826 56.7674H165.368V40.0401H183.826V56.7674ZM183.826 38.7218H165.368V21.9945H183.826V38.7218ZM203.684 247.111H185.227V230.384H203.684V247.111ZM203.684 229.066H185.227V212.339H203.684V229.066ZM203.684 211.02H185.227V194.293H203.684V211.02ZM203.684 192.975H185.227V176.247H203.684V192.975ZM203.684 174.929H185.227V158.202H203.684V174.929ZM203.684 156.883H185.227V140.156H203.684V156.883ZM203.684 138.838H185.227V130.351H203.684V138.838ZM203.684 128.95H185.227V112.223H203.684V128.95ZM203.684 110.904H185.227V94.1769H203.684V110.904ZM203.684 92.8586H185.227V76.1314H203.684V92.8586ZM203.684 74.8129H185.227V58.0858H203.684V74.8129ZM203.684 56.7674H185.227V40.0401H203.684V56.7674ZM203.684 38.7218H185.227V21.9945H203.684V38.7218ZM223.46 247.111H205.003V230.384H223.46V247.111ZM223.46 229.066H205.003V212.339H223.46V229.066ZM223.46 211.02H205.003V194.293H223.46V211.02ZM223.46 192.975H205.003V176.247H223.46V192.975ZM223.46 174.929H205.003V158.202H223.46V174.929ZM223.46 156.883H205.003V140.156H223.46V156.883ZM223.46 138.838H205.003V130.351H223.46V138.838ZM223.46 128.95H205.003V112.223H223.46V128.95ZM223.46 110.904H205.003V94.1769H223.46V110.904ZM223.46 92.8586H205.003V76.1314H223.46V92.8586ZM223.46 74.8129H205.003V58.0858H223.46V74.8129ZM223.46 56.7674H205.003V40.0401H223.46V56.7674ZM223.46 38.7218H205.003V21.9945H223.46V38.7218ZM243.236 247.111H224.861V230.384H243.319V247.111H243.236ZM243.236 229.066H224.861V212.339H243.319V229.066H243.236ZM243.236 211.02H224.861V194.293H243.319V211.02H243.236ZM243.236 192.975H224.861V176.247H243.319V192.975H243.236ZM243.236 174.929H224.861V158.202H243.319V174.929H243.236ZM243.236 156.883H224.861V140.156H243.319V156.883H243.236ZM243.236 138.838H224.861V130.351H243.319V138.838H243.236ZM243.236 128.95H224.861V112.223H243.319V128.95H243.236ZM243.236 110.904H224.861V94.1769H243.319V110.904H243.236ZM243.236 92.8586H224.861V76.1314H243.319V92.8586H243.236ZM243.236 74.8129H224.861V58.0858H243.319V74.8129H243.236ZM243.236 56.7674H224.861V40.0401H243.319V56.7674H243.236ZM243.236 38.7218H224.861V21.9945H243.319V38.7218H243.236ZM263.012 247.111H244.637V230.384H263.095V247.111H263.012ZM263.012 229.066H244.637V212.339H263.095V229.066H263.012ZM263.012 211.02H244.637V194.293H263.095V211.02H263.012ZM263.012 192.975H244.637V176.247H263.095V192.975H263.012ZM263.012 174.929H244.637V158.202H263.095V174.929H263.012ZM263.012 156.883H244.637V140.156H263.095V156.883H263.012ZM263.012 138.838H244.637V130.351H263.095V138.838H263.012ZM263.012 128.95H244.637V112.223H263.095V128.95H263.012ZM263.012 110.904H244.637V94.1769H263.095V110.904H263.012ZM263.012 92.8586H244.637V76.1314H263.095V92.8586H263.012ZM263.012 74.8129H244.637V58.0858H263.095V74.8129H263.012ZM263.012 56.7674H244.637V40.0401H263.095V56.7674H263.012ZM263.012 38.7218H244.637V21.9945H263.095V38.7218H263.012ZM282.871 247.111H264.413V230.384H282.871V247.111ZM282.871 229.066H264.413V212.339H282.871V229.066ZM282.871 211.02H264.413V194.293H282.871V211.02ZM282.871 192.975H264.413V176.247H282.871V192.975ZM282.871 174.929H264.413V158.202H282.871V174.929ZM282.871 156.883H264.413V140.156H282.871V156.883ZM282.871 138.838H264.413V130.351H282.871V138.838ZM282.871 128.95H264.413V112.223H282.871V128.95ZM282.871 110.904H264.413V94.1769H282.871V110.904ZM282.871 92.8586H264.413V76.1314H282.871V92.8586ZM282.871 74.8129H264.413V58.0858H282.871V74.8129ZM282.871 56.7674H264.413V40.0401H282.871V56.7674ZM282.871 38.7218H264.413V21.9945H282.871V38.7218ZM302.647 247.111H284.189V230.384H302.647V247.111ZM302.647 229.066H284.189V212.339H302.647V229.066ZM302.647 211.02H284.189V194.293H302.647V211.02ZM302.647 192.975H284.189V176.247H302.647V192.975ZM302.647 174.929H284.189V158.202H302.647V174.929ZM302.647 156.883H284.189V140.156H302.647V156.883ZM302.647 138.838H284.189V130.351H302.647V138.838ZM302.647 128.95H284.189V112.223H302.647V128.95ZM302.647 110.904H284.189V94.1769H302.647V110.904ZM302.647 92.8586H284.189V76.1314H302.647V92.8586ZM302.647 74.8129H284.189V58.0858H302.647V74.8129ZM302.647 56.7674H284.189V40.0401H302.647V56.7674ZM302.647 38.7218H284.189V21.9945H302.647V38.7218Z" fill="url(#paint0_linear_8633_15766)"/>
<path opacity="0.6" d="M114.605 13.84L6.57812 2.46875V111.731L116.912 26.4471" fill="url(#paint1_linear_8633_15766)"/>
<path d="M283.605 328.445H46.375V353.577H283.605V328.445Z" fill="#99CEE0"/>
<path d="M164.953 371.291C230.485 371.291 283.609 363.36 283.609 353.575C283.609 343.791 230.485 335.859 164.953 335.859C99.421 335.859 46.2969 343.791 46.2969 353.575C46.2969 363.36 99.421 371.291 164.953 371.291Z" fill="#99CEE0"/>
<path d="M164.953 346.159C230.485 346.159 283.609 338.227 283.609 328.443C283.609 318.658 230.485 310.727 164.953 310.727C99.421 310.727 46.2969 318.658 46.2969 328.443C46.2969 338.227 99.421 346.159 164.953 346.159Z" fill="#B2DBED"/>
<path opacity="0.4" d="M257.737 107.947C257.737 101.438 216.207 96.1641 164.954 96.1641C113.701 96.1641 72.1719 101.438 72.1719 107.947C72.1719 108.03 72.1719 108.112 72.2543 108.194H72.1719V328.45H257.737V108.194H257.654C257.737 108.112 257.737 108.03 257.737 107.947Z" fill="url(#paint2_linear_8633_15766)"/>
<path d="M164.954 340.23C216.197 340.23 257.737 334.955 257.737 328.447C257.737 321.94 216.197 316.664 164.954 316.664C113.712 316.664 72.1719 321.94 72.1719 328.447C72.1719 334.955 113.712 340.23 164.954 340.23Z" fill="#C6EAF4"/>
<path d="M118.075 16.6407C116.839 17.4647 115.109 16.9703 114.037 15.8167C113.049 14.6631 112.637 13.0975 112.554 11.5319C112.472 10.0487 112.719 8.56549 113.461 7.24709C114.202 6.01109 115.438 5.02229 116.839 4.85749C118.24 4.69269 119.723 5.51669 120.3 6.83509C119.888 5.26949 119.476 3.45669 120.465 2.13829C120.959 1.47909 121.783 1.14949 122.525 0.902292C124.09 0.407892 125.821 0.325493 127.304 0.902292C130.023 1.97349 131.506 4.93989 132.825 7.65909C132.248 6.58789 133.237 5.18709 134.39 5.10469C135.544 5.02229 136.533 5.76389 137.274 6.75269C137.933 7.65909 138.428 8.81269 139.087 9.71909C139.746 10.6255 140.817 11.4495 141.971 11.2847C141.559 10.7079 141.889 9.80149 142.465 9.38949C143.042 8.97749 143.784 8.97749 144.525 9.14229C146.833 9.63669 148.645 11.6143 149.469 13.9215C150.293 16.2287 150.129 18.8655 149.469 21.1727C148.81 23.5623 147.657 27.8471 146.338 29.8247C143.537 34.1095 139.993 35.9223 135.461 37.8175" fill="#442617"/>
<path d="M125.484 46.389L127.215 45.3178L142.376 43.2578L145.425 44.0818C145.425 44.0818 141.388 54.3818 133.395 54.4642C125.402 54.5466 125.484 46.389 125.484 46.389Z" fill="#FD9993"/>
<path d="M190.331 137.935C190.331 137.935 192.144 135.71 196.923 144.033C201.702 152.355 198.901 152.767 198.901 152.767C198.901 152.767 202.444 156.64 204.916 154.25C204.916 154.25 208.129 150.789 202.444 140.901C196.758 130.931 192.144 132.002 192.144 132.002C188.765 132.909 190.331 137.935 190.331 137.935Z" fill="#5F9AD6"/>
<path d="M208.543 132.909C205.411 134.722 199.891 135.381 199.891 135.381L203.516 140.243L205.906 145.763C205.906 145.763 209.284 141.396 212.415 139.583C215.547 137.771 222.303 133.898 222.303 133.898C222.303 133.898 227.659 131.179 225.599 127.553C223.539 123.927 218.513 127.223 218.513 127.223C218.513 127.223 211.674 131.096 208.543 132.909Z" fill="#69A0E1"/>
<path d="M197.175 136.127C194.456 138.269 196.599 142.142 196.599 142.142L197.505 143.708L198.411 145.273C198.411 145.273 200.636 149.064 203.85 147.828C204.262 147.663 204.674 147.333 205.003 147.004C205.827 146.015 207.723 143.543 208.547 141.73C208.876 140.906 208.876 139.917 208.382 139.093L207.723 137.94L207.063 136.786C206.569 135.962 205.827 135.468 204.839 135.303C202.779 135.056 199.73 135.468 198.494 135.715C197.999 135.715 197.505 135.88 197.175 136.127Z" fill="#69A0E1"/>
<path d="M186.706 133.892C186.706 133.892 182.75 138.26 188.683 148.642C194.698 159.107 200.384 157.788 200.384 157.788C200.384 157.788 203.762 156.058 204.998 153.998C204.998 153.998 201.373 156.223 194.946 145.016C188.518 133.81 192.226 131.75 192.226 131.75C189.672 132.08 186.706 133.892 186.706 133.892Z" fill="#69A0E1"/>
<path d="M107.607 312.461C107.607 312.461 81.8983 319.135 80.7447 322.431C79.5911 325.727 80.7447 327.293 85.9359 327.787C91.1271 328.282 116.177 330.424 118.566 330.671C120.297 330.836 120.956 322.761 121.203 317.405C119.885 318.311 118.154 319.053 116.094 319.3C109.997 319.877 109.832 313.944 107.607 312.461Z" fill="#4F311D"/>
<path d="M124.584 300.016C122.853 307.185 121.453 312.376 121.453 313.035C121.37 313.53 121.37 315.26 121.205 317.32C119.887 318.226 118.157 318.968 116.097 319.215C109.999 319.874 109.752 313.942 107.609 312.376C107.609 312.376 107.609 306.196 107.692 297.297L124.584 300.016Z" fill="#FD9993"/>
<path d="M231.297 225.603C231.297 225.603 242.998 249.499 246.458 249.911C249.919 250.323 251.238 248.922 250.661 243.731C250.084 238.457 247.2 213.572 246.953 211.183C246.788 209.452 238.713 210.441 233.439 211.265C234.593 212.419 235.664 213.902 236.323 215.879C238.054 221.73 232.368 223.213 231.297 225.603Z" fill="#4F311D"/>
<path d="M215.727 211.438C223.06 211.685 228.416 212.015 229.075 211.933C229.57 211.85 231.218 211.603 233.36 211.273C234.514 212.427 235.585 213.91 236.244 215.888C238.057 221.738 232.289 223.139 231.3 225.611C231.3 225.611 225.285 226.847 216.468 228.577L215.727 211.438Z" fill="#FD9993"/>
<path d="M107.526 89.6473V95.9097C107.526 95.9097 100.439 94.4265 86.0191 90.3889C71.5991 86.3513 70.1983 85.6921 70.1983 85.6921C70.1983 85.6921 67.9735 77.6169 63.1119 76.8753C58.2503 76.1337 50.9991 77.0401 50.4223 79.5945C49.8455 82.1489 51.7407 93.4377 55.4487 94.8385C59.1567 96.1569 66.2431 95.9097 66.2431 95.9097C66.2431 95.9097 77.2847 100.359 88.4087 106.21C99.5327 112.06 112.387 118.075 116.507 116.51C120.627 114.944 125.901 109.506 125.818 94.0145C125.736 78.5233 107.526 89.6473 107.526 89.6473Z" fill="#FD9993"/>
<path d="M187.625 84.5375L194.382 87.0919C194.382 87.0919 196.03 95.3319 198.749 103.489C201.468 111.647 207.401 126.891 207.401 126.891C207.401 126.891 203.693 138.262 204.682 141.311C208.637 153.094 220.915 142.629 222.892 140.981C224.87 139.333 219.349 126.149 219.431 125.408C219.514 124.666 213.746 81.7359 209.214 77.7807C204.764 73.8255 195.288 68.3047 195.288 68.3047L187.625 84.5375Z" fill="#FD9993"/>
<path d="M181.273 136.372C181.273 136.372 185.311 141.234 185.311 154.253C185.311 167.272 185.229 206 185.229 206C185.229 206 209.537 206.824 223.957 209.543C227.5 216.959 223.709 230.555 223.709 230.555C223.709 230.555 169.985 234.098 161.168 225.034C152.269 215.97 151.692 178.561 151.692 178.561C151.692 178.561 141.969 227.506 141.227 232.203C140.485 236.9 132.822 301.584 126.148 309.165C111.728 313.367 104.477 306.528 104.477 306.528C104.477 306.528 109.585 247.942 110.986 222.81C112.469 197.678 126.889 129.203 126.889 129.203L181.273 136.372Z" fill="#1D506D"/>
<path d="M125.49 46.3875C125.49 46.3875 126.149 51.9083 131.999 51.9083C137.85 51.9083 144.195 43.5859 144.195 43.5859C144.195 43.5859 157.461 44.8219 163.559 47.7883C169.656 50.7547 198.331 68.5531 198.331 68.5531L189.185 86.6811L171.387 79.0179C171.387 79.0179 175.671 114.203 178.308 120.136C180.945 126.068 183.829 139.582 183.829 139.582C183.829 139.582 146.667 149.8 122.194 141.395C122.029 114.12 119.557 95.4979 119.557 95.4979L105.055 92.4491C105.055 92.4491 109.834 60.7251 112.223 56.2755C114.531 51.7435 125.49 46.3875 125.49 46.3875Z" fill="#222D6D"/>
<path d="M61.6255 61.6413C61.6255 61.6413 63.3559 63.866 54.1271 66.5852C44.8983 69.3044 45.1455 66.5029 45.1455 66.5029C45.1455 66.5029 40.5311 69.0573 42.3439 72.0237C42.3439 72.0237 44.8983 75.9789 55.9399 72.6829C66.9815 69.4693 66.9815 64.7725 66.9815 64.7725C66.8991 61.3117 61.6255 61.6413 61.6255 61.6413Z" fill="#5F9AD6"/>
<path d="M62.2015 80.5832C61.2127 77.1224 61.7895 71.6016 61.7895 71.6016L56.2687 73.9912L50.3359 74.98C50.3359 74.98 53.7967 79.2648 54.8679 82.808C55.8567 86.2688 58.0815 93.7672 58.0815 93.7672C58.0815 93.7672 59.4823 99.6176 63.4375 98.464C67.4751 97.3104 65.4151 91.6248 65.4151 91.6248C65.4151 91.6248 63.2727 84.044 62.2015 80.5832Z" fill="#69A0E1"/>
<path d="M61.7073 68.7217C60.2241 65.5905 56.0217 66.8265 56.0217 66.8265L54.2913 67.3209L52.5609 67.8153C52.5609 67.8153 48.3585 69.0513 48.8529 72.5121C48.9353 73.0065 49.1001 73.4185 49.4297 73.8305C50.1713 74.9017 52.1489 77.2913 53.7969 78.5273C54.5385 79.1041 55.5273 79.2689 56.3513 79.0217L57.6697 78.6097L58.9881 78.1977C59.8945 77.9505 60.5537 77.2913 60.8833 76.3849C61.6249 74.4897 61.8721 71.3585 61.9545 70.1225C61.9545 69.6281 61.9545 69.1337 61.7073 68.7217Z" fill="#69A0E1"/>
<path d="M66.3254 59.162C66.3254 59.162 63.0294 54.3004 51.4934 57.6788C39.9574 61.0572 39.875 66.99 39.875 66.99C39.875 66.99 40.7814 70.698 42.4294 72.346C42.4294 72.346 41.1934 68.3084 53.5534 64.6828C65.9134 61.0572 67.067 65.1772 67.067 65.1772C67.479 62.458 66.3254 59.162 66.3254 59.162Z" fill="#69A0E1"/>
<path d="M138.176 28.5905C138.176 28.5905 140.648 27.4369 141.389 24.3057C142.131 21.1745 139.576 19.4441 138.258 21.3393C136.94 23.2345 136.033 24.5529 136.033 24.5529C136.033 24.5529 126.722 18.2081 124.003 16.6425C121.201 15.0769 120.872 13.5938 119.8 13.5938C116.916 15.3241 116.092 19.0321 116.999 26.4481C118.07 35.2649 121.448 39.9617 124.909 39.7145C126.063 39.6321 126.969 39.6321 126.969 39.6321L127.299 46.2241C134.88 47.0481 142.048 44.8233 143.779 43.6697C142.955 42.5161 142.296 34.4409 142.296 34.4409C138.752 33.2049 138.176 28.5905 138.176 28.5905Z" fill="#FD9993"/>
<path d="M132.491 14.0002C132.491 14.0002 127.053 13.3409 123.015 13.0938C123.674 13.7529 124.333 14.7418 124.581 16.1426C125.075 18.9442 125.075 25.1242 122.273 26.6074C126.97 26.2778 131.667 26.0305 133.068 25.0417C134.551 24.0529 134.469 14.6594 132.491 14.0002Z" fill="#1D506D"/>
<path d="M120.544 18.9442C120.544 16.3074 119.967 14.2474 118.567 13.0938C114.529 13.5058 105.218 15.0714 104.147 16.7194C102.993 18.5322 104.476 27.5138 105.465 28.0082C106.289 28.4202 112.799 27.5962 117.907 27.0194C120.297 25.701 120.462 22.2402 120.544 18.9442Z" fill="#82C1E8"/>
<path d="M124.588 16.2278C124.341 14.7446 123.682 13.8382 123.023 13.179C121.704 13.0966 120.468 13.0142 119.727 13.0966C119.397 13.0966 119.068 13.179 118.573 13.179C119.974 14.3326 120.551 16.3926 120.551 19.0294C120.551 22.243 120.304 25.7862 117.914 27.1046C119.15 26.9398 120.304 26.8574 121.292 26.775C121.622 26.775 121.952 26.6926 122.281 26.6926C125.083 25.127 125.083 19.0294 124.588 16.2278Z" fill="#5186C7"/>
<g opacity="0.33">
<path d="M104.224 16.7332C104.141 16.898 104.059 17.0628 103.977 17.31L110.404 27.8572C111.722 27.6924 113.205 27.61 114.606 27.4452L107.19 15.25C105.707 15.7444 104.553 16.2388 104.224 16.7332Z" fill="#FAFDFF"/>
<path d="M117.981 27.1137C118.887 26.6193 119.546 25.7129 119.876 24.6417L113.284 13.9297C112.213 14.0945 111.142 14.3417 110.07 14.5889L117.734 27.1961C117.898 27.1137 117.981 27.1137 117.981 27.1137Z" fill="#FAFDFF"/>
</g>
<path d="M132.49 15.4894C132.49 15.4894 139.082 17.467 146.169 15.2422C146.745 17.3846 147.322 19.6918 147.322 19.6918C147.322 19.6918 138.423 20.5158 131.172 18.5382" fill="#1D506D"/>
<path d="M145.509 12.3534C145.509 12.3534 147.981 5.18456 140.565 3.12456C133.149 1.06456 127.875 5.10216 127.875 5.10216L134.302 11.6942L145.509 12.3534Z" fill="#442617"/>
<path d="M292.345 53.6395L268.697 52.4035C268.532 52.4035 268.367 52.3211 268.285 52.1563L256.913 31.0619C256.831 30.8971 256.831 30.7323 256.913 30.5675C256.996 30.4027 257.161 30.3203 257.408 30.3203L281.881 31.0619C282.045 31.0619 282.21 31.1443 282.293 31.3915L292.84 52.8979C292.922 53.0627 292.922 53.2275 292.84 53.3923C292.675 53.5571 292.51 53.6395 292.345 53.6395ZM269.026 51.4147L291.439 52.5683L281.469 32.1331L258.232 31.3915L269.026 51.4147Z" fill="#AED6F4"/>
<path d="M255.346 72.9992C255.263 72.9992 255.263 72.9992 255.346 72.9992C255.181 72.9992 255.016 72.9168 254.934 72.752L243.398 51.74C243.315 51.5752 243.315 51.328 243.398 51.2456L256.994 30.6456C257.076 30.4808 257.241 30.3984 257.488 30.3984C257.653 30.3984 257.818 30.4808 257.9 30.6456L269.271 51.74C269.354 51.9048 269.354 52.0696 269.271 52.2344L255.84 72.752C255.675 72.8344 255.511 72.9992 255.346 72.9992ZM244.387 51.4928L255.346 71.516L268.118 51.9872L257.323 31.8816L244.387 51.4928Z" fill="#AED6F4"/>
<path d="M279.076 74.152L255.263 72.916C255.098 72.916 254.933 72.8336 254.851 72.6688C254.768 72.504 254.768 72.3392 254.851 72.1744L268.282 51.6568C268.447 51.4096 268.776 51.3272 269.024 51.492C269.271 51.6568 269.353 51.9864 269.188 52.2336L256.252 72.0096L278.829 73.1632L291.931 52.8928C292.096 52.6456 292.425 52.5632 292.672 52.728C292.92 52.8928 293.002 53.2224 292.837 53.4696L279.571 73.9872C279.406 74.0696 279.241 74.152 279.076 74.152Z" fill="#AED6F4"/>
<path d="M311.877 288.816L293.337 287.91C293.173 287.91 293.09 287.827 293.008 287.663L284.109 271.1C284.026 270.935 284.026 270.853 284.109 270.688C284.191 270.606 284.273 270.523 284.438 270.523L303.637 271.1C303.802 271.1 303.885 271.183 303.967 271.347L312.207 288.239C312.289 288.404 312.289 288.487 312.207 288.651C312.207 288.734 312.042 288.816 311.877 288.816ZM293.667 287.086L311.301 287.992L303.473 271.924L285.262 271.347L293.667 287.086Z" fill="#AED6F4"/>
<path d="M282.869 303.9C282.705 303.9 282.622 303.817 282.54 303.653L273.476 287.173C273.393 287.008 273.393 286.843 273.476 286.761L284.188 270.61C284.27 270.528 284.435 270.445 284.517 270.445C284.682 270.445 284.765 270.528 284.847 270.693L293.746 287.255C293.829 287.42 293.829 287.585 293.746 287.667L283.199 303.735C283.117 303.9 283.034 303.9 282.869 303.9ZM274.3 287.09L282.869 302.746L292.922 287.42L284.435 271.681L274.3 287.09Z" fill="#AED6F4"/>
<path d="M301.487 304.892L282.782 303.985C282.617 303.985 282.535 303.903 282.452 303.738C282.37 303.573 282.37 303.491 282.452 303.326L293 287.258C293.164 287.093 293.412 287.011 293.576 287.176C293.741 287.258 293.824 287.588 293.659 287.753L283.524 303.244L301.24 304.15L311.54 288.247C311.622 288.082 311.952 288 312.116 288.165C312.281 288.247 312.364 288.577 312.199 288.741L301.816 304.809C301.734 304.809 301.652 304.892 301.487 304.892Z" fill="#AED6F4"/>
<path d="M49.7594 195.78L26.1106 194.544C25.9458 194.544 25.781 194.462 25.6986 194.297L14.3274 173.203C14.245 173.038 14.245 172.873 14.3274 172.708C14.4098 172.543 14.5746 172.461 14.8218 172.461L39.2946 173.203C39.4594 173.203 39.6242 173.285 39.7066 173.532L50.2538 195.039C50.3362 195.203 50.3362 195.368 50.2538 195.533C50.089 195.698 49.9242 195.78 49.7594 195.78ZM26.5226 193.555L48.9354 194.709L38.965 174.274L15.7282 173.532L26.5226 193.555Z" fill="#AED6F4"/>
<path d="M12.7598 215.062C12.595 215.062 12.4302 214.979 12.3478 214.815L0.8118 193.803C0.7294 193.638 0.7294 193.391 0.8118 193.308L14.4078 172.708C14.4902 172.543 14.655 172.461 14.9022 172.461C15.067 172.461 15.2318 172.543 15.3142 172.708L26.6854 193.803C26.7678 193.967 26.7678 194.132 26.6854 194.297L13.2542 214.815C13.0894 214.979 12.9246 215.062 12.7598 215.062ZM1.8006 193.555L12.7598 213.579L25.5318 194.05L14.7374 173.944L1.8006 193.555Z" fill="#AED6F4"/>
<path d="M36.4905 216.3L12.6769 215.064C12.5121 215.064 12.3473 214.982 12.2649 214.817C12.1825 214.652 12.1825 214.488 12.2649 214.323L25.6961 193.805C25.8609 193.558 26.1905 193.476 26.4377 193.64C26.6849 193.805 26.7673 194.135 26.6025 194.382L13.6657 214.158L36.2433 215.312L49.3449 194.959C49.5097 194.712 49.8393 194.629 50.0865 194.794C50.3337 194.959 50.4161 195.288 50.2513 195.536L36.9849 216.053C36.8201 216.136 36.6553 216.3 36.4905 216.3Z" fill="#AED6F4"/>
<path d="M69.6091 148.569L58.4027 134.396C58.3203 134.314 58.3203 134.149 58.3203 133.984L64.7475 116.763C64.8299 116.598 64.9123 116.516 65.0771 116.516C65.2419 116.516 65.3243 116.516 65.4891 116.68L77.4371 131.183C77.5195 131.265 77.5195 131.43 77.5195 131.595L70.4331 148.569C70.3507 148.734 70.2683 148.816 70.1035 148.816C69.8563 148.734 69.6915 148.734 69.6091 148.569ZM59.1443 134.067L69.8563 147.58L76.6131 131.43L65.2419 117.669L59.1443 134.067Z" fill="#AED6F4"/>
<path d="M39.7777 137.033C39.6953 136.951 39.6953 136.786 39.6953 136.621L45.9577 119.317C46.0401 119.152 46.1225 119.07 46.2873 119.07L65.0745 116.516C65.2393 116.516 65.3217 116.516 65.4041 116.68C65.4865 116.763 65.4865 116.928 65.4865 117.092L59.0593 134.314C58.9769 134.479 58.8945 134.561 58.7297 134.561L40.1073 137.198C39.9425 137.198 39.8601 137.116 39.7777 137.033ZM46.6169 119.812L40.6841 136.292L58.4001 133.82L64.4977 117.422L46.6169 119.812Z" fill="#AED6F4"/>
<path d="M51.0708 151.368C51.0708 151.286 51.0708 151.368 51.0708 151.368L39.6996 137.03C39.6172 136.948 39.6172 136.783 39.6172 136.618C39.6996 136.454 39.782 136.371 39.9468 136.371L58.5692 133.734C58.8164 133.734 58.9812 133.817 58.9812 134.064C58.9812 134.311 58.8988 134.476 58.6516 134.476L40.6884 137.03L51.4828 150.626L69.7756 147.907C70.0228 147.907 70.1876 147.99 70.1876 148.237C70.1876 148.484 70.1052 148.649 69.858 148.649L51.318 151.368C51.318 151.45 51.1532 151.45 51.0708 151.368Z" fill="#AED6F4"/>
<path d="M255.18 110.334L263.42 106.297C263.503 106.297 263.585 106.297 263.585 106.297L271.413 111.323C271.496 111.323 271.496 111.406 271.496 111.488C271.496 111.57 271.496 111.57 271.413 111.653L262.926 115.938C262.844 115.938 262.761 115.938 262.679 115.938L255.098 110.582C255.016 110.582 255.016 110.499 255.016 110.417C255.098 110.417 255.098 110.334 255.18 110.334ZM263.503 106.709L255.675 110.499L262.926 115.608L271.001 111.488L263.503 106.709Z" fill="#AED6F4"/>
<path d="M264.16 96.8203C264.242 96.8203 264.325 96.8203 264.325 96.8203L272.153 101.764C272.235 101.764 272.235 101.847 272.235 101.929L271.494 111.488C271.494 111.57 271.411 111.652 271.411 111.652C271.329 111.652 271.246 111.652 271.246 111.652L263.418 106.626C263.336 106.626 263.336 106.544 263.336 106.461L264.078 96.9851C264.078 96.9027 264.078 96.8203 264.16 96.8203ZM271.906 102.094L264.407 97.3971L263.748 106.461L271.164 111.24L271.906 102.094Z" fill="#AED6F4"/>
<path d="M255.836 100.858L264.158 96.8203C264.241 96.8203 264.323 96.8203 264.323 96.8203C264.323 96.8203 264.406 96.9027 264.406 96.9851L263.664 106.461C263.664 106.544 263.582 106.626 263.417 106.626C263.334 106.626 263.252 106.544 263.252 106.379L263.911 97.2323L256.001 101.105L255.342 110.416C255.342 110.499 255.259 110.581 255.094 110.581C255.012 110.581 254.93 110.499 254.93 110.334L255.589 100.858C255.754 100.94 255.836 100.858 255.836 100.858Z" fill="#AED6F4"/>
<path opacity="0.4" d="M45.3069 279.739C50.4038 279.739 54.5357 275.607 54.5357 270.51C54.5357 265.413 50.4038 261.281 45.3069 261.281C40.21 261.281 36.0781 265.413 36.0781 270.51C36.0781 275.607 40.21 279.739 45.3069 279.739Z" fill="url(#paint3_linear_8633_15766)"/>
<path opacity="0.4" d="M276.69 248.02C279.875 248.02 282.458 245.438 282.458 242.252C282.458 239.067 279.875 236.484 276.69 236.484C273.504 236.484 270.922 239.067 270.922 242.252C270.922 245.438 273.504 248.02 276.69 248.02Z" fill="url(#paint4_linear_8633_15766)"/>
<path opacity="0.4" d="M323.241 262.03C329.886 262.03 335.272 256.643 335.272 249.999C335.272 243.355 329.886 237.969 323.241 237.969C316.597 237.969 311.211 243.355 311.211 249.999C311.211 256.643 316.597 262.03 323.241 262.03Z" fill="url(#paint5_linear_8633_15766)"/>
<path opacity="0.4" d="M92.0258 175.677C95.2114 175.677 97.7938 173.094 97.7938 169.909C97.7938 166.723 95.2114 164.141 92.0258 164.141C88.8402 164.141 86.2578 166.723 86.2578 169.909C86.2578 173.094 88.8402 175.677 92.0258 175.677Z" fill="url(#paint6_linear_8633_15766)"/>
<defs>
<linearGradient id="paint0_linear_8633_15766" x1="25.4902" y1="139.082" x2="304.347" y2="139.082" gradientUnits="userSpaceOnUse">
<stop stop-color="#9BC3EA"/>
<stop offset="0.0663081" stop-color="#9CC4EA"/>
<stop offset="0.249" stop-color="#A4C9EC"/>
<stop offset="0.5283" stop-color="#B9D6F0"/>
<stop offset="0.8679" stop-color="#DCEBF7"/>
<stop offset="1" stop-color="#EBF4FA"/>
</linearGradient>
<linearGradient id="paint1_linear_8633_15766" x1="89.7233" y1="53.5955" x2="26.7743" y2="56.2404" gradientUnits="userSpaceOnUse">
<stop stop-color="white"/>
<stop offset="0.4798" stop-color="#F8FBFD" stop-opacity="0.5202"/>
<stop offset="1" stop-color="#EBF4FA" stop-opacity="0"/>
</linearGradient>
<linearGradient id="paint2_linear_8633_15766" x1="164.975" y1="363.985" x2="164.975" y2="162.83" gradientUnits="userSpaceOnUse">
<stop stop-color="#9BC3EA"/>
<stop offset="0.0663081" stop-color="#9CC4EA"/>
<stop offset="0.249" stop-color="#A4C9EC"/>
<stop offset="0.5283" stop-color="#B9D6F0"/>
<stop offset="0.8679" stop-color="#DCEBF7"/>
<stop offset="1" stop-color="#EBF4FA"/>
</linearGradient>
<linearGradient id="paint3_linear_8633_15766" x1="36.0663" y1="270.474" x2="54.4988" y2="270.474" gradientUnits="userSpaceOnUse">
<stop stop-color="#9BC3EA"/>
<stop offset="0.0663081" stop-color="#9CC4EA"/>
<stop offset="0.249" stop-color="#A4C9EC"/>
<stop offset="0.5283" stop-color="#B9D6F0"/>
<stop offset="0.8679" stop-color="#DCEBF7"/>
<stop offset="1" stop-color="#EBF4FA"/>
</linearGradient>
<linearGradient id="paint4_linear_8633_15766" x1="270.965" y1="242.26" x2="282.458" y2="242.26" gradientUnits="userSpaceOnUse">
<stop stop-color="#9BC3EA"/>
<stop offset="0.0663081" stop-color="#9CC4EA"/>
<stop offset="0.249" stop-color="#A4C9EC"/>
<stop offset="0.5283" stop-color="#B9D6F0"/>
<stop offset="0.8679" stop-color="#DCEBF7"/>
<stop offset="1" stop-color="#EBF4FA"/>
</linearGradient>
<linearGradient id="paint5_linear_8633_15766" x1="311.238" y1="250.038" x2="335.319" y2="250.038" gradientUnits="userSpaceOnUse">
<stop stop-color="#9BC3EA"/>
<stop offset="0.0663081" stop-color="#9CC4EA"/>
<stop offset="0.249" stop-color="#A4C9EC"/>
<stop offset="0.5283" stop-color="#B9D6F0"/>
<stop offset="0.8679" stop-color="#DCEBF7"/>
<stop offset="1" stop-color="#EBF4FA"/>
</linearGradient>
<linearGradient id="paint6_linear_8633_15766" x1="86.2381" y1="169.93" x2="97.7314" y2="169.93" gradientUnits="userSpaceOnUse">
<stop stop-color="#9BC3EA"/>
<stop offset="0.0663081" stop-color="#9CC4EA"/>
<stop offset="0.249" stop-color="#A4C9EC"/>
<stop offset="0.5283" stop-color="#B9D6F0"/>
<stop offset="0.8679" stop-color="#DCEBF7"/>
<stop offset="1" stop-color="#EBF4FA"/>
</linearGradient>
</defs>
</svg>
